<svg width="10" height="10" xmlns="http://www.w3.org/2000/svg">
 <!-- Created with Method Draw - http://github.com/duopixel/Method-Draw/ -->
 <g>
  <title>background</title>
 </g>
 <g>
  <title>Layer 1</title>
  <path d="m1.03994,8.63981c0.06887,0 0.27548,0 0.34435,0c0.20661,0 0.34613,-0.02206 0.48209,0c0.21498,0.03489 0.34435,0.06887 0.55096,0.06887c0.20661,0 0.27548,0 0.41322,0c0.20661,0 0.34435,0 0.41322,0c0.13774,0 0.20661,0 0.27548,0c0.13774,0 0.20661,0 0.27548,0.06887l0,0" id="svg_2" stroke-width="1.5" fill="none"/>
  <path d="m1.59091,8.77755c0.06887,0 0.20661,0 0.34435,0c0.20661,0 0.48565,0.02474 0.75758,0.06887c0.21498,0.03489 0.41322,0.06887 0.55096,0.06887c0.20661,0 0.27548,0 0.48209,0l0.06887,0l0.06887,0" id="svg_3" stroke-width="1.5" fill="none"/>
  <path stroke="null" d="m0.97107,8.57094c0,0.27548 0.54621,0.27548 1.09243,0.27548c1.09243,0 2.18486,0 3.27729,0c1.09243,0 1.91175,0 2.45797,0l0.54621,0l0.27311,0l0.27311,0" id="svg_4" stroke-width="1.5" fill="none"/>
  <path d="m4.89669,8.91529c-4.89669,-8.91529 -4.89669,-8.91529 -4.89669,-8.91529l4.89669,8.91529l-0.06887,0l-0.06887,0" id="svg_5" fill-opacity="null" stroke-opacity="null" stroke-width="1.5" stroke="null" fill="none"/>
  <path d="m2.41735,8.70868c0,0 -0.01214,0.03349 0.13774,0.06887c0.13406,0.03165 0.27548,0.06887 0.55096,0.06887c0.27548,0 0.61983,0 0.96419,0c0.41322,0 0.75875,-0.0284 1.10193,0c0.4175,0.03455 0.75247,0.10314 1.10193,0.13774c0.41121,0.04072 0.68871,0 0.96419,0c0.27548,0 0.61983,0 0.75758,0l0.20661,0l0.06887,0" id="svg_6" fill-opacity="null" stroke-opacity="null" stroke-width="1.5" stroke="null" fill="none"/>
  <path d="m8.34022,8.98416c-0.13774,0 -0.34529,0.02272 -0.61983,0c-0.4175,-0.03455 -0.90197,-0.04222 -1.58402,-0.13774c-0.49654,-0.06954 -1.0339,-0.10727 -1.58402,-0.13774c-0.62269,-0.03449 -1.1708,-0.06887 -1.65289,-0.06887c-0.61983,0 -1.03444,-0.03906 -1.58402,0c-0.48576,0.03452 -0.82645,0.06887 -1.03306,0.06887l-0.06887,0.06887l-0.06887,0" id="svg_7" fill-opacity="null" stroke-opacity="null" stroke-width="1.5" stroke="null" fill="none"/>
  <path d="m1.3843,8.70868c0.13774,0 0.20661,0 0.41322,0c0.13774,0 0.55163,-0.0214 0.89532,0c0.55418,0.0345 1.23709,0.10326 1.92837,0.13774c0.82542,0.04117 1.65367,0.12633 2.75482,0.20661c0.82712,0.0603 1.79063,0.13774 2.47934,0.13774l0.55096,0l0.48209,0l0.41322,0" id="svg_8" fill-opacity="null" stroke-opacity="null" stroke-width="1.5" stroke="null" fill="none"/>
  <path d="m13.57438,9.19077c-0.13774,0 -0.41322,0 -0.82645,0c-0.68871,0 -1.23795,0.03442 -2.27273,0.06887c-1.44548,0.04813 -3.30667,0.11843 -5.02755,0.20661c-2.20526,0.11301 -4.13214,0.27785 -5.99173,0.34435c-1.99716,0.07142 -3.58127,0.06887 -5.02755,0.06887c-1.58402,0 -2.75482,0 -3.58127,0.13774l-0.75758,0.06887l-0.48209,0.06887l-0.13774,0.06887" id="svg_9" fill-opacity="null" stroke-opacity="null" stroke-width="1.5" stroke="null" fill="none"/>
  <path d="m5.44766,10.08609c-0.34435,0.13774 -0.96419,0.41322 -2.06612,0.96419c-1.23967,0.61983 -3.18129,1.62508 -5.3719,2.68595c-2.21763,1.07395 -4.59268,2.13172 -5.99174,3.09917c-0.92906,0.64245 -1.65289,1.30854 -2.20386,1.79063l-0.41322,0.27548" id="svg_10" fill-opacity="null" stroke-opacity="null" stroke-width="1.5" stroke="null" fill="none"/>
  <polyline stroke-linecap="round" id="svg_11" points="5.447656262807612,8.157713443328316 5.447656262807612,8.226583960954319 " fill-opacity="null" stroke-opacity="null" stroke-width="1.5" stroke="null" fill="none"/>
  <rect id="svg_12" height="1.92837" width="6.74931" y="7.81336" x="0.62672" fill-opacity="null" stroke-opacity="null" stroke-width="1.5" stroke="null" fill="none"/>
  <rect stroke="#86939e" transform="rotate(-0.3244689702987671 5.039627552032759,5.271859645843404) " id="svg_13" height="0.72324" width="9.54505" y="4.91024" x="0.2671" fill-opacity="null" stroke-width="1.5" fill="none"/>
 </g>
</svg>